<svg width="34" height="34" viewBox="0 0 38 39" fill="none" xmlns="http://www.w3.org/2000/svg">
<rect width="38.0001" height="38.6471" rx="6" fill="#c8c8c8"/>
<path fill-rule="evenodd" clip-rule="evenodd" d="M23.512 11.488C23.8245 11.8006 24.0001 12.2245 24.0001 12.6664C24.0001 13.1084 23.8245 13.5323 23.512 13.8449L18.0233 19.3336L23.512 24.8224C23.8157 25.1367 23.9837 25.5578 23.9799 25.9948C23.9761 26.4318 23.8008 26.8499 23.4917 27.1589C23.1827 27.468 22.7647 27.6433 22.3276 27.6471C21.8906 27.6509 21.4696 27.4828 21.1552 27.1792L14.488 20.512C14.1755 20.1995 14 19.7756 14 19.3336C14 18.8916 14.1755 18.4678 14.488 18.1552L21.1552 11.488C21.4678 11.1755 21.8916 11 22.3336 11C22.7756 11 23.1995 11.1755 23.512 11.488Z" fill="#000000"/>
</svg>
